<svg width="18" height="18" viewBox="0 0 18 18" fill="none" xmlns="http://www.w3.org/2000/svg">
<path d="M6.75 0.75H3.19444C2.5742 0.75 2.26407 0.75 2.01172 0.826551C1.44354 0.998907 0.998907 1.44354 0.826551 2.01172C0.75 2.26407 0.75 2.5742 0.75 3.19444C0.75 3.81469 0.75 4.12482 0.826551 4.37717C0.998907 4.94535 1.44354 5.38998 2.01172 5.56234C2.26407 5.63889 2.5742 5.63889 3.19444 5.63889H6.75C7.37027 5.63889 7.6804 5.63889 7.93276 5.56234C8.50093 5.38998 8.94556 4.94535 9.11791 4.37717C9.19444 4.12482 9.19444 3.81469 9.19444 3.19444C9.19444 2.5742 9.19444 2.26407 9.11791 2.01172C8.94556 1.44354 8.50093 0.998907 7.93276 0.826551C7.6804 0.75 7.37027 0.75 6.75 0.75Z" stroke="white" stroke-width="1.5" stroke-linejoin="round"/>
<path d="M16.7502 6.75V3.19444C16.7502 2.5742 16.7502 2.26407 16.6737 2.01172C16.5013 1.44354 16.0567 0.998907 15.4885 0.826551C15.2362 0.75 14.926 0.75 14.3058 0.75C13.6855 0.75 13.3754 0.75 13.123 0.826551C12.5548 0.998907 12.1102 1.44354 11.9379 2.01172C11.8613 2.26407 11.8613 2.5742 11.8613 3.19444V6.75C11.8613 7.37027 11.8613 7.6804 11.9379 7.93276C12.1102 8.50093 12.5548 8.94556 13.123 9.11791C13.3754 9.19444 13.6855 9.19444 14.3058 9.19444C14.926 9.19444 15.2362 9.19444 15.4885 9.11791C16.0567 8.94556 16.5013 8.50093 16.6737 7.93276C16.7502 7.6804 16.7502 7.37027 16.7502 6.75Z" stroke="white" stroke-width="1.5" stroke-linejoin="round"/>
<path d="M13.123 16.6737C13.3754 16.7502 13.6855 16.7502 14.3058 16.7502C14.926 16.7502 15.2362 16.7502 15.4885 16.6737C16.0567 16.5013 16.5013 16.0567 16.6737 15.4885C16.7502 15.2362 16.7502 14.926 16.7502 14.3058C16.7502 13.6855 16.7502 13.3754 16.6737 13.123C16.5013 12.5548 16.0567 12.1102 15.4885 11.9379C15.2362 11.8613 14.926 11.8613 14.3058 11.8613C13.6855 11.8613 13.3754 11.8613 13.123 11.9379C12.5548 12.1102 12.1102 12.5548 11.9379 13.123C11.8613 13.3754 11.8613 13.6855 11.8613 14.3058C11.8613 14.926 11.8613 15.2362 11.9379 15.4885C12.1102 16.0567 12.5548 16.5013 13.123 16.6737Z" stroke="white" stroke-width="1.5" stroke-linejoin="round"/>
<path d="M5.63889 8.30566H4.30556C2.62945 8.30566 1.7914 8.30566 1.2707 8.82638C0.75 9.34709 0.75 10.1851 0.75 11.8612V13.1946C0.75 14.8706 0.75 15.7087 1.2707 16.2294C1.7914 16.7501 2.62945 16.7501 4.30556 16.7501H5.63889C7.31498 16.7501 8.15302 16.7501 8.67373 16.2294C9.19444 15.7087 9.19444 14.8706 9.19444 13.1946V11.8612C9.19444 10.1851 9.19444 9.34709 8.67373 8.82638C8.15302 8.30566 7.31498 8.30566 5.63889 8.30566Z" stroke="white" stroke-width="1.5" stroke-linejoin="round"/>
</svg>
