<svg width="17" height="17" viewBox="0 0 17 17" fill="none" xmlns="http://www.w3.org/2000/svg">
<path d="M9.91643 0.75H2.41662C1.49617 0.75 0.75 1.4962 0.75 2.41669C0.75 3.33717 1.49617 4.08338 2.41662 4.08338H13.2497C13.2497 3.30839 13.2497 2.92089 13.1645 2.60297C12.9334 1.74024 12.2595 1.06635 11.3968 0.835184C11.0789 0.75 10.6914 0.75 9.91643 0.75Z" stroke="black" stroke-width="1.5" stroke-linecap="round" stroke-linejoin="round"/>
<path d="M0.75 2.41602V10.7495C0.75 13.1065 0.75 14.285 1.48221 15.0173C2.21443 15.7495 3.39291 15.7495 5.74987 15.7495H10.7497C13.1067 15.7495 14.2852 15.7495 15.0174 15.0173C15.7496 14.285 15.7496 13.1065 15.7496 10.7495V9.08277C15.7496 6.72574 15.7496 5.54719 15.0174 4.81495C14.2852 4.0827 13.1067 4.0827 10.7497 4.0827H4.08325" stroke="black" stroke-width="1.5" stroke-linecap="round" stroke-linejoin="round"/>
<path d="M15.7512 8.25H14.0846C13.6971 8.25 13.5034 8.25 13.3444 8.29258C12.913 8.40817 12.5761 8.74509 12.4606 9.17651C12.418 9.33543 12.418 9.52918 12.418 9.91669C12.418 10.3042 12.418 10.4979 12.4606 10.6569C12.5761 11.0883 12.913 11.4252 13.3444 11.5408C13.5034 11.5834 13.6971 11.5834 14.0846 11.5834H15.7512" stroke="black" stroke-width="1.5" stroke-linecap="round" stroke-linejoin="round"/>
</svg>
