<svg width="18" height="18" viewBox="0 0 18 18" fill="none" xmlns="http://www.w3.org/2000/svg">
<path d="M15.1636 0.75C14.2729 0.75 13.5508 2.89903 13.5508 5.55H15.1636C15.9409 5.55 16.3295 5.55 16.5701 5.28164C16.8107 5.01327 16.7688 4.65986 16.685 3.95305C16.4639 2.08714 15.8662 0.75 15.1636 0.75Z" stroke="#7D7D7D" stroke-width="1.5"/>
<path d="M13.55 5.59341V14.0666C13.55 15.276 13.55 15.8806 13.1804 16.1186C12.5765 16.5077 11.6429 15.6919 11.1733 15.3958C10.7853 15.1511 10.5914 15.0288 10.376 15.0218C10.1434 15.0141 9.94592 15.1314 9.52672 15.3958L7.998 16.3599C7.5856 16.6199 7.37944 16.75 7.15 16.75C6.92057 16.75 6.71437 16.6199 6.302 16.3599L4.7733 15.3958C4.38532 15.1511 4.19133 15.0288 3.97602 15.0218C3.74338 15.0141 3.54594 15.1314 3.1267 15.3958C2.65716 15.6919 1.7235 16.5077 1.11956 16.1186C0.75 15.8806 0.75 15.276 0.75 14.0666V5.59341C0.75 3.3102 0.75 2.1686 1.45294 1.4593C2.15589 0.75 3.28726 0.75 5.55 0.75H15.15" stroke="#7D7D7D" stroke-width="1.5" stroke-linecap="round" stroke-linejoin="round"/>
<path d="M3.94922 3.9502H10.3492" stroke="#7D7D7D" stroke-width="1.5" stroke-linecap="round" stroke-linejoin="round"/>
<path d="M5.54922 7.15039H3.94922" stroke="#7D7D7D" stroke-width="1.5" stroke-linecap="round" stroke-linejoin="round"/>
<path d="M9.14922 7.85039C8.4865 7.85039 7.94922 8.32047 7.94922 8.90039C7.94922 9.48031 8.4865 9.95039 9.14922 9.95039C9.81194 9.95039 10.3492 10.4205 10.3492 11.0004C10.3492 11.5803 9.81194 12.0504 9.14922 12.0504M9.14922 7.85039C9.6717 7.85039 10.1162 8.14255 10.2809 8.55039M9.14922 7.85039V7.15039M9.14922 12.0504C8.62674 12.0504 8.18226 11.7582 8.01754 11.3504M9.14922 12.0504V12.7504" stroke="#7D7D7D" stroke-width="1.5" stroke-linecap="round"/>
</svg>
