<svg width="21" height="18" viewBox="0 0 21 18" fill="none" xmlns="http://www.w3.org/2000/svg">
<path d="M0.75 9.22024C0.75 8.18062 1.59276 7.33789 2.63235 7.33789C4.19174 7.33789 5.45588 8.60198 5.45588 10.1614V13.9261C5.45588 15.4856 4.19174 16.7497 2.63235 16.7497C1.59276 16.7497 0.75 15.9069 0.75 14.8673V9.22024Z" stroke="#7D7D7D" stroke-width="1.5" stroke-linecap="round" stroke-linejoin="round"/>
<path d="M13.435 4.80295L13.1844 5.61244C12.979 6.27575 12.8763 6.6074 12.9553 6.86934C13.0192 7.0812 13.1595 7.26388 13.3506 7.38407C13.5868 7.53259 13.9442 7.53259 14.6589 7.53259H15.0392C17.4581 7.53259 18.6675 7.53259 19.2388 8.24864C19.304 8.33042 19.3621 8.41748 19.4123 8.50878C19.8518 9.30727 19.3522 10.383 18.353 12.5346C17.436 14.509 16.9774 15.4962 16.1261 16.0772C16.0438 16.1334 15.9591 16.1865 15.8723 16.2362C14.976 16.75 13.8656 16.75 11.6446 16.75H11.1629C8.47221 16.75 7.12687 16.75 6.29097 15.9401C5.45508 15.1301 5.45508 13.8266 5.45508 11.2196V10.3032C5.45508 8.93315 5.45508 8.24817 5.69822 7.62115C5.94137 6.99414 6.40694 6.4786 7.33808 5.44753L11.1888 1.18347C11.2854 1.07653 11.3337 1.02305 11.3763 0.986001C11.7737 0.640147 12.387 0.679074 12.7345 1.07221C12.7718 1.11433 12.8124 1.17345 12.8938 1.29169C13.021 1.47664 13.0846 1.56912 13.1402 1.66073C13.6365 2.48095 13.7867 3.45528 13.5594 4.38026C13.5339 4.48357 13.501 4.5901 13.435 4.80295Z" stroke="#7D7D7D" stroke-width="1.5" stroke-linecap="round" stroke-linejoin="round"/>
</svg>
