<svg width="18" height="18" viewBox="0 0 18 18" fill="none" xmlns="http://www.w3.org/2000/svg">
<path d="M4.53947 13.8026V12.1184M8.75 13.8026V11.2763M12.9605 13.8026V9.59211M0.75 8.75C0.75 4.97877 0.75 3.09315 1.92157 1.92157C3.09315 0.75 4.97877 0.75 8.75 0.75C12.5212 0.75 14.4068 0.75 15.5785 1.92157C16.75 3.09315 16.75 4.97877 16.75 8.75C16.75 12.5212 16.75 14.4068 15.5785 15.5785C14.4068 16.75 12.5212 16.75 8.75 16.75C4.97877 16.75 3.09315 16.75 1.92157 15.5785C0.75 14.4068 0.75 12.5212 0.75 8.75Z" stroke="#7D7D7D" stroke-width="1.5" stroke-linecap="round" stroke-linejoin="round"/>
<path d="M3.69141 8.31762C5.50623 8.37808 9.62144 8.10414 11.9622 4.38921M10.4283 3.9404L12.0077 3.6862C12.2002 3.66169 12.4828 3.81366 12.5523 3.99482L12.9699 5.37456" stroke="#7D7D7D" stroke-width="1.5" stroke-linecap="round" stroke-linejoin="round"/>
</svg>
