<svg width="16" height="18" viewBox="0 0 16 18" fill="none" xmlns="http://www.w3.org/2000/svg">
<path d="M14.1459 9.55025C14.7787 8.64318 15.1497 7.53995 15.1497 6.35016C15.1497 3.25728 12.6424 0.75 9.54947 0.75C6.45653 0.75 3.94922 3.25727 3.94922 6.35016C3.94922 7.20906 4.14258 8.02276 4.48815 8.75022" stroke="#7D7D7D" stroke-width="1.5" stroke-linecap="round" stroke-linejoin="round"/>
<path d="M9.54929 3.95041C8.66557 3.95041 7.94922 4.48768 7.94922 5.15045C7.94922 5.81321 8.66557 6.35048 9.54929 6.35048C10.433 6.35048 11.1494 6.88775 11.1494 7.55051C11.1494 8.21325 10.433 8.75055 9.54929 8.75055M9.54929 3.95041C10.246 3.95041 10.8386 4.28434 11.0583 4.75044M9.54929 3.95041V3.15039M9.54929 8.75055C8.85262 8.75055 8.25995 8.41662 8.04026 7.95052M9.54929 8.75055V9.55057" stroke="#7D7D7D" stroke-width="1.5" stroke-linecap="round"/>
<path d="M0.75 10.3496H2.66594C2.90127 10.3496 3.13337 10.4027 3.34385 10.5045L4.97751 11.2949C5.18799 11.3968 5.42009 11.4497 5.65542 11.4497H6.48954C7.2963 11.4497 7.95033 12.0826 7.95033 12.8633C7.95033 12.8948 7.92873 12.9226 7.89736 12.9312L5.86453 13.4933C5.49987 13.5941 5.1094 13.559 4.77018 13.3948L3.02379 12.5499M7.95033 12.3497L11.6247 11.2208C12.2761 11.0178 12.9802 11.2584 13.3883 11.8235C13.6833 12.232 13.5631 12.817 13.1334 13.065L7.12061 16.5342C6.73819 16.7548 6.287 16.8087 5.86636 16.6839L0.75 15.1657" stroke="#7D7D7D" stroke-width="1.5" stroke-linecap="round" stroke-linejoin="round"/>
</svg>
