<svg width="19" height="18" viewBox="0 0 19 18" fill="none" xmlns="http://www.w3.org/2000/svg">
<path d="M17.5929 4.77809C17.5929 7.00256 15.7075 8.80619 13.3824 8.80619C13.109 8.80653 12.8364 8.78126 12.5678 8.73082C12.3745 8.69453 12.2778 8.67642 12.2104 8.6867C12.1429 8.69697 12.0472 8.74783 11.856 8.84956C11.315 9.13722 10.6842 9.23886 10.0776 9.12602C10.3081 8.8424 10.4656 8.50211 10.5351 8.13731C10.5772 7.91415 10.4729 7.69739 10.3166 7.53874C9.60691 6.81801 9.17188 5.84687 9.17188 4.77809C9.17188 2.5536 11.0572 0.75 13.3824 0.75C15.7075 0.75 17.5929 2.5536 17.5929 4.77809Z" stroke="#7D7D7D" stroke-width="1.5" stroke-linejoin="round"/>
<path d="M12.1113 4.96094H12.1181M14.6376 4.96094H14.6445" stroke="#7D7D7D" stroke-width="1.5" stroke-linecap="round"/>
<path d="M5.38316 16.7499H3.03898C2.76674 16.7499 2.49333 16.7116 2.24328 16.6041C1.42929 16.2544 1.01631 15.7926 0.823844 15.5037C0.714329 15.3394 0.729933 15.13 0.848745 14.9722C1.79182 13.7195 3.98238 12.963 5.38717 12.9629C6.79196 12.963 8.97854 13.7195 9.92161 14.9722C10.0404 15.13 10.056 15.3394 9.94653 15.5037C9.75403 15.7926 9.34106 16.2544 8.52708 16.6041C8.27698 16.7116 8.00363 16.7499 7.73138 16.7499H5.38316Z" stroke="#7D7D7D" stroke-width="1.5" stroke-linecap="round" stroke-linejoin="round"/>
<path d="M7.72686 8.57217C7.72686 9.86169 6.67919 10.9071 5.38685 10.9071C4.09452 10.9071 3.04688 9.86169 3.04688 8.57217C3.04688 7.28266 4.09452 6.2373 5.38685 6.2373C6.67919 6.2373 7.72686 7.28266 7.72686 8.57217Z" stroke="#7D7D7D" stroke-width="1.5" stroke-linecap="round" stroke-linejoin="round"/>
</svg>
