<svg width="18" height="18" viewBox="0 0 18 18" fill="none" xmlns="http://www.w3.org/2000/svg">
<path d="M13.1737 15.4167C15.3293 13.9834 16.75 11.5327 16.75 8.75C16.75 4.33172 13.1683 0.75 8.75 0.75C8.13898 0.75 7.54396 0.818498 6.97222 0.94824M13.1737 15.4167V12.3056M13.1737 15.4167H16.3056M4.30556 2.09716C2.16158 3.53228 0.75 5.97629 0.75 8.75C0.75 13.1683 4.33172 16.75 8.75 16.75C9.36102 16.75 9.95604 16.6815 10.5278 16.5518M4.30556 2.09716V5.19444M4.30556 2.09716H1.19444" stroke="#7D7D7D" stroke-width="1.5" stroke-linecap="round" stroke-linejoin="round"/>
<path d="M10.1891 6.70744C9.8767 6.37935 9.11066 5.60841 7.90052 6.15574C6.69043 6.70307 6.4982 8.46409 8.32861 8.6512C9.15599 8.73573 9.69537 8.55306 10.1891 9.06978C10.683 9.58649 10.7747 11.0236 9.51235 11.4108C8.24986 11.798 7.4319 11.1585 7.2119 10.9584M8.6815 5.19434V5.89747M8.6815 11.53V12.3054" stroke="#7D7D7D" stroke-width="1.5" stroke-linecap="round" stroke-linejoin="round"/>
</svg>
